<?xml version="1.0" encoding="UTF-8"?>
<svg xmlns="http://www.w3.org/2000/svg" xmlns:xlink="http://www.w3.org/1999/xlink" width="42px" height="42px" viewBox="0 0 42 42">
  <!-- Generator: Sketch 43.2 (39069) - http://www.bohemiancoding.com/sketch -->
  <title>icon_twitter</title>
  <desc>Created with Sketch.</desc>
  <defs></defs>
  <g id="homepage" stroke="none" stroke-width="1" fill="none" fill-rule="evenodd">
    <g id="social_medias" transform="translate(-62.000000, 0.000000)" fill="#F39A1E">
      <g id="icon_twitter" transform="translate(62.000000, 0.000000)">
        <path d="M21,42 C9.40202025,42 0,32.5979797 0,21 C0,9.40202025 9.40202025,0 21,0 C32.5979797,0 42,9.40202025 42,21 C42,32.5979797 32.5979797,42 21,42 Z M30.6879979,14.8940489 C29.9636058,15.2153048 29.1852029,15.4325001 28.3680562,15.5300795 C29.2020542,15.030228 29.8425497,14.2385745 30.1440737,13.2954028 C29.3636544,13.7583109 28.4992664,14.0944018 27.5791392,14.2755898 C26.8423606,13.4905616 25.7926077,13 24.6308725,13 C22.4000126,13 20.5915167,14.8085679 20.5915167,17.0391398 C20.5915167,17.3557868 20.6272358,17.6640081 20.6960815,17.959627 C17.3391335,17.7911854 14.3628532,16.1831054 12.3706488,13.7393711 C12.0229636,14.3359379 11.8237719,15.0297959 11.8237719,15.7700312 C11.8237719,17.1713581 12.5368578,18.4077001 13.6206735,19.1320923 C12.9585738,19.1111361 12.3357218,18.9293719 11.7911494,18.6268397 C11.7908614,18.6436911 11.7907894,18.6606145 11.7907894,18.6776098 C11.7907894,20.6346713 13.1831144,22.2672362 15.0309302,22.638326 C14.6919587,22.7305764 14.3351277,22.7799062 13.9667744,22.7799062 C13.7064426,22.7799062 13.4534562,22.7546292 13.2068072,22.7074598 C13.7208454,24.3122271 15.2125503,25.4800115 16.98007,25.512706 C15.5976109,26.5960176 13.8560163,27.2416981 11.9635517,27.2416981 C11.6375429,27.2416981 11.3159989,27.2226143 11,27.1853109 C12.7876117,28.3313469 14.9107382,29 17.1917922,29 C24.6214387,29 28.6841992,22.8452232 28.6841992,17.507521 C28.6841992,17.3323821 28.6802384,17.1581795 28.6725328,16.984985 C29.4616659,16.4154957 30.1464501,15.7040661 30.6879979,14.8940489 Z" id="Combined-Shape"></path>
      </g>
    </g>
  </g>
</svg>
