<?xml version="1.0" encoding="UTF-8"?>
<svg xmlns="http://www.w3.org/2000/svg" xmlns:xlink="http://www.w3.org/1999/xlink" width="42px" height="42px" viewBox="0 0 42 42">
  <!-- Generator: Sketch 43.2 (39069) - http://www.bohemiancoding.com/sketch -->
  <title>icon_fb</title>
  <desc>Created with Sketch.</desc>
  <defs></defs>
  <g id="homepage" stroke="none" stroke-width="1" fill="none" fill-rule="evenodd">
    <g id="social_medias" transform="translate(-124.000000, 0.000000)" fill="#F39A1E">
      <g id="icon_fb" transform="translate(124.000000, 0.000000)">
        <path d="M21,42 C9.40202025,42 0,32.5979797 0,21 C0,9.40202025 9.40202025,0 21,0 C32.5979797,0 42,9.40202025 42,21 C42,32.5979797 32.5979797,42 21,42 Z M12.9934281,12 C12.4447159,12 12,12.4447159 12,12.9934281 L12,29.0065719 C12,29.5552167 12.4447159,30.0000674 12.9934281,30.0000674 L21.6144012,30.0000674 L21.6144012,23.0294799 L19.268616,23.0294799 L19.268616,20.3128958 L21.6144012,20.3128958 L21.6144012,18.3095161 C21.6144012,15.9846381 23.0343357,14.7186748 25.1083277,14.7186748 C26.1018232,14.7186748 26.9556453,14.7925918 27.2044407,14.8256386 L27.2044407,17.2553223 L25.766027,17.2559968 C24.6381185,17.2559968 24.4196722,17.7919624 24.4196722,18.5784768 L24.4196722,20.3128958 L27.1097514,20.3128958 L26.7595225,23.0294799 L24.4196722,23.0294799 L24.4196722,30.0000674 L29.0065719,30.0000674 C29.5552167,30.0000674 30,29.5552167 30,29.0065719 L30,12.9934281 C30,12.4447159 29.5552167,12 29.0065719,12 L12.9934281,12 Z" id="Combined-Shape"></path>
      </g>
    </g>
  </g>
</svg>
