<?xml version="1.0" encoding="UTF-8"?>
<svg xmlns="http://www.w3.org/2000/svg" xmlns:xlink="http://www.w3.org/1999/xlink" width="42px" height="42px" viewBox="0 0 42 42">
  <!-- Generator: Sketch 43.2 (39069) - http://www.bohemiancoding.com/sketch -->
  <title>icon_linkedin</title>
  <desc>Created with Sketch.</desc>
  <defs></defs>
  <g id="homepage" stroke="none" stroke-width="1" fill="none" fill-rule="evenodd">
    <g id="social_medias" transform="translate(-248.000000, 0.000000)" fill="#F39A1E">
      <g id="icon_linkedin" transform="translate(248.000000, 0.000000)">
        <path d="M21,42 C9.40202025,42 0,32.5979797 0,21 C0,9.40202025 9.40202025,0 21,0 C32.5979797,0 42,9.40202025 42,21 C42,32.5979797 32.5979797,42 21,42 Z M30.0328927,30 L30.0328927,23.4060653 C30.0328927,20.1678849 29.3337481,17.6785381 25.5510886,17.6785381 C23.7328927,17.6785381 22.5130638,18.6751166 22.0147745,19.6206065 L21.9636858,19.6206065 L21.9636858,17.9766719 L18.3818818,17.9766719 L18.3818818,30 L22.1141524,30 L22.1141524,24.0534215 C22.1141524,22.48507 22.4101866,20.9650078 24.3550544,20.9650078 C26.2726283,20.9650078 26.2971229,22.7587092 26.2971229,24.1534992 L26.2971229,30 L30.0328927,30 Z M14.1681182,16.3341369 C15.3634526,16.3341369 16.3341369,15.3634526 16.3341369,14.1667185 C16.3341369,12.9706843 15.3634526,12 14.1681182,12 C12.9678849,12 12,12.9706843 12,14.1667185 C12,15.3634526 12.9678849,16.3341369 14.1681182,16.3341369 Z M12.2974339,30 L16.0374028,30 L16.0374028,17.9766719 L12.2974339,17.9766719 L12.2974339,30 Z" id="Combined-Shape"></path>
      </g>
    </g>
  </g>
</svg>
